<svg xmlns="http://www.w3.org/2000/svg" xmlns:xlink="http://www.w3.org/1999/xlink" width="512" zoomAndPan="magnify" viewBox="0 0 384 383.999986" height="512" preserveAspectRatio="xMidYMid meet" version="1.2"><defs><clipPath id="04ac283698"><path d="M 10.445312 10.898438 L 373.445312 10.898438 L 373.445312 373 L 10.445312 373 Z M 10.445312 10.898438 "/></clipPath></defs><g id="da3fc9949a"><g clip-rule="nonzero" clip-path="url(#04ac283698)"><path style=" stroke:none;fill-rule:nonzero;fill:#e05d38;fill-opacity:1;" d="M 373.125 191.925781 C 373.125 291.921875 292.003906 372.984375 191.945312 372.984375 C 91.882812 372.984375 10.769531 291.921875 10.769531 191.925781 C 10.769531 91.933594 91.882812 10.871094 191.945312 10.871094 C 292.003906 10.871094 373.125 91.933594 373.125 191.925781 Z M 373.125 191.925781 "/></g><path style=" stroke:none;fill-rule:nonzero;fill:#ffffff;fill-opacity:1;" d="M 96.878906 230.226562 L 269.277344 124.605469 L 287.027344 153.574219 L 114.625 259.191406 Z M 96.878906 230.226562 "/><path style=" stroke:none;fill-rule:nonzero;fill:#ffffff;fill-opacity:1;" d="M 96.878906 153.613281 L 114.625 124.648438 L 287.027344 230.265625 L 269.277344 259.234375 Z M 96.878906 153.613281 "/><path style=" stroke:none;fill-rule:nonzero;fill:#ffffff;fill-opacity:1;" d="M 174.960938 292.984375 L 208.929688 292.984375 L 208.929688 90.8125 L 174.960938 90.8125 Z M 174.960938 292.984375 "/></g></svg>